<svg width="26" height="26" viewBox="0 0 26 26" fill="none" xmlns="http://www.w3.org/2000/svg">
<path d="M3.5642 5.731C3.4632 5.83201 3.38307 5.95192 3.32841 6.0839C3.27374 6.21587 3.24561 6.35732 3.24561 6.50017C3.24561 6.78866 3.36021 7.06534 3.5642 7.26933C3.7682 7.47333 4.04488 7.58793 4.33337 7.58793C4.62186 7.58793 4.89854 7.47333 5.10254 7.26933L6.50004 5.861V22.7502C6.50004 23.0375 6.61417 23.313 6.81734 23.5162C7.0205 23.7194 7.29605 23.8335 7.58337 23.8335C7.87069 23.8335 8.14624 23.7194 8.3494 23.5162C8.55257 23.313 8.6667 23.0375 8.6667 22.7502V5.861L10.0642 7.26933C10.1649 7.37087 10.2847 7.45147 10.4167 7.50647C10.5488 7.56147 10.6904 7.58978 10.8334 7.58978C10.9764 7.58978 11.118 7.56147 11.25 7.50647C11.382 7.45147 11.5018 7.37087 11.6025 7.26933C11.7041 7.16862 11.7847 7.04881 11.8397 6.91679C11.8947 6.78478 11.923 6.64318 11.923 6.50017C11.923 6.35715 11.8947 6.21556 11.8397 6.08354C11.7847 5.95153 11.7041 5.83171 11.6025 5.731L8.35254 2.481C8.25183 2.37946 8.13201 2.29887 8 2.24387C7.86798 2.18887 7.72638 2.16055 7.58337 2.16055C7.44036 2.16055 7.29876 2.18887 7.16675 2.24387C7.03473 2.29887 6.91491 2.37946 6.8142 2.481L3.5642 5.731Z" fill="#292929"/>
<path d="M17.3335 3.25023V20.1394L15.936 18.7311C15.732 18.5271 15.4554 18.4125 15.1669 18.4125C14.8784 18.4125 14.6017 18.5271 14.3977 18.7311C14.1937 18.9351 14.0791 19.2117 14.0791 19.5002C14.0791 19.7887 14.1937 20.0654 14.3977 20.2694L17.6477 23.5194C17.7484 23.6209 17.8682 23.7015 18.0002 23.7565C18.1323 23.8115 18.2739 23.8398 18.4169 23.8398C18.5599 23.8398 18.7015 23.8115 18.8335 23.7565C18.9655 23.7015 19.0853 23.6209 19.186 23.5194L22.436 20.2694C22.5376 20.1687 22.6182 20.0489 22.6732 19.9169C22.7282 19.7848 22.7565 19.6432 22.7565 19.5002C22.7565 19.3572 22.7282 19.2156 22.6732 19.0836C22.6182 18.9516 22.5376 18.8318 22.436 18.7311C22.3353 18.6295 22.2155 18.5489 22.0835 18.4939C21.9515 18.4389 21.8099 18.4106 21.6669 18.4106C21.5239 18.4106 21.3823 18.4389 21.2502 18.4939C21.1182 18.5489 20.9984 18.6295 20.8977 18.7311L19.5002 20.1394V3.25023C19.5002 2.96291 19.3861 2.68736 19.1829 2.4842C18.9797 2.28103 18.7042 2.1669 18.4169 2.1669C18.1295 2.1669 17.854 2.28103 17.6508 2.4842C17.4477 2.68736 17.3335 2.96291 17.3335 3.25023Z" fill="#292929"/>
</svg>
