<svg width="15" height="17" viewBox="0 0 15 17" fill="none" xmlns="http://www.w3.org/2000/svg">
<g clip-path="url(#clip0)">
<path d="M13.7018 15.3388L12.789 4.49117C12.7641 4.19493 12.5314 3.96802 12.2528 3.96802H10.3705V3.06206C10.3705 1.37364 9.08335 0 7.50126 0C5.91925 0 4.63227 1.37364 4.63227 3.06206V3.96802H2.74868C2.47001 3.96802 2.23735 4.19493 2.21244 4.49117L1.2961 15.3815C1.2826 15.5422 1.333 15.7015 1.435 15.8205C1.53701 15.9396 1.68123 16.0074 1.83234 16.0074H13.1692C13.1696 16.0074 13.1702 16.0074 13.1706 16.0074C13.468 16.0074 13.709 15.7501 13.709 15.4328C13.7089 15.4009 13.7065 15.3694 13.7018 15.3388ZM5.70906 3.06206C5.70906 2.00726 6.51306 1.14911 7.50133 1.14911C8.48968 1.14911 9.29375 2.00726 9.29375 3.06206V3.96802H5.70906V3.06206ZM2.42127 14.8583L3.24092 5.11713H4.63227V6.14458C4.63227 6.46189 4.87326 6.71914 5.17066 6.71914C5.46807 6.71914 5.70906 6.46189 5.70906 6.14458V5.11713H9.29375V6.14458C9.29375 6.46189 9.53474 6.71914 9.83215 6.71914C10.1296 6.71914 10.3705 6.46189 10.3705 6.14458V5.11713H11.7606L12.5802 14.8583H2.42127Z" fill="white"/>
</g>
<defs>
<clipPath id="clip0">
<rect width="15" height="16.0074" fill="white"/>
</clipPath>
</defs>
</svg>
