<svg width="13" height="26" viewBox="0 0 13 26" fill="none" xmlns="http://www.w3.org/2000/svg">
<line x1="2.8043" y1="6.03477" x2="2.8043" y2="25.1963" stroke="#292929" stroke-width="1.3" stroke-linecap="round"/>
<mask id="path-2-inside-1" fill="white">
<path d="M0 8.5376C0 7.98531 0.447715 7.5376 1 7.5376H4.46154C5.01382 7.5376 5.46154 7.98531 5.46154 8.5376V19.6914C5.46154 20.2437 5.01382 20.6914 4.46154 20.6914H1C0.447716 20.6914 0 20.2437 0 19.6914V8.5376Z"/>
</mask>
<path d="M0 8.5376C0 7.98531 0.447715 7.5376 1 7.5376H4.46154C5.01382 7.5376 5.46154 7.98531 5.46154 8.5376V19.6914C5.46154 20.2437 5.01382 20.6914 4.46154 20.6914H1C0.447716 20.6914 0 20.2437 0 19.6914V8.5376Z" fill="#292929"/>
<path d="M1 8.8139H4.46154V6.2613H1V8.8139ZM4.18524 8.5376V19.6914H6.73784V8.5376H4.18524ZM4.46154 19.4151H1V21.9677H4.46154V19.4151ZM1.2763 19.6914V8.5376H-1.2763V19.6914H1.2763ZM1 19.4151C1.15259 19.4151 1.2763 19.5388 1.2763 19.6914H-1.2763C-1.2763 20.9486 -0.257162 21.9677 1 21.9677V19.4151ZM4.18524 19.6914C4.18524 19.5388 4.30894 19.4151 4.46154 19.4151V21.9677C5.71871 21.9677 6.73784 20.9486 6.73784 19.6914H4.18524ZM4.46154 8.8139C4.30894 8.8139 4.18524 8.6902 4.18524 8.5376H6.73784C6.73784 7.28043 5.7187 6.2613 4.46154 6.2613V8.8139ZM1 6.2613C-0.257167 6.2613 -1.2763 7.28043 -1.2763 8.5376H1.2763C1.2763 8.69019 1.1526 8.8139 1 8.8139V6.2613Z" fill="#292929" mask="url(#path-2-inside-1)"/>
<line x1="10.3424" y1="0.65" x2="10.3424" y2="18.7346" stroke="#292929" stroke-width="1.3" stroke-linecap="round"/>
<mask id="path-5-inside-2" fill="white">
<path d="M7.53809 6.38477C7.53809 5.83248 7.9858 5.38477 8.53809 5.38477H11.9996C12.5519 5.38477 12.9996 5.83248 12.9996 6.38477V17.5386C12.9996 18.0909 12.5519 18.5386 11.9996 18.5386H8.53809C7.9858 18.5386 7.53809 18.0909 7.53809 17.5386V6.38477Z"/>
</mask>
<path d="M7.53809 6.38477C7.53809 5.83248 7.9858 5.38477 8.53809 5.38477H11.9996C12.5519 5.38477 12.9996 5.83248 12.9996 6.38477V17.5386C12.9996 18.0909 12.5519 18.5386 11.9996 18.5386H8.53809C7.9858 18.5386 7.53809 18.0909 7.53809 17.5386V6.38477Z" fill="#292929"/>
<path d="M8.53809 6.66106H11.9996V4.10847H8.53809V6.66106ZM11.7233 6.38477V17.5386H14.2759V6.38477H11.7233ZM11.9996 17.2623H8.53809V19.8149H11.9996V17.2623ZM8.81439 17.5386V6.38477H6.26179V17.5386H8.81439ZM8.53809 17.2623C8.69068 17.2623 8.81439 17.386 8.81439 17.5386H6.26179C6.26179 18.7958 7.28092 19.8149 8.53809 19.8149V17.2623ZM11.7233 17.5386C11.7233 17.386 11.847 17.2623 11.9996 17.2623V19.8149C13.2568 19.8149 14.2759 18.7958 14.2759 17.5386H11.7233ZM11.9996 6.66106C11.847 6.66106 11.7233 6.53736 11.7233 6.38477H14.2759C14.2759 5.1276 13.2568 4.10847 11.9996 4.10847V6.66106ZM8.53809 4.10847C7.28092 4.10847 6.26179 5.1276 6.26179 6.38477H8.81439C8.81439 6.53736 8.69068 6.66106 8.53809 6.66106V4.10847Z" fill="#292929" mask="url(#path-5-inside-2)"/>
</svg>
