<svg width="13" height="26" viewBox="0 0 13 26" fill="none" xmlns="http://www.w3.org/2000/svg">
<line x1="2.80381" y1="6.03477" x2="2.80381" y2="25.1963" stroke="#292929" stroke-width="1.3" stroke-linecap="round"/>
<mask id="path-2-inside-1" fill="white">
<path d="M0 8.5376C0 7.98531 0.447715 7.5376 1 7.5376H4.46154C5.01382 7.5376 5.46154 7.98531 5.46154 8.5376V19.6914C5.46154 20.2437 5.01382 20.6914 4.46154 20.6914H1C0.447716 20.6914 0 20.2437 0 19.6914V8.5376Z"/>
</mask>
<path d="M0 8.5376C0 7.98531 0.447715 7.5376 1 7.5376H4.46154C5.01382 7.5376 5.46154 7.98531 5.46154 8.5376V19.6914C5.46154 20.2437 5.01382 20.6914 4.46154 20.6914H1C0.447716 20.6914 0 20.2437 0 19.6914V8.5376Z" fill="#292929"/>
<path d="M1 8.8139H4.46154V6.2613H1V8.8139ZM4.18524 8.5376V19.6914H6.73784V8.5376H4.18524ZM4.46154 19.4151H1V21.9677H4.46154V19.4151ZM1.2763 19.6914V8.5376H-1.2763V19.6914H1.2763ZM1 19.4151C1.15259 19.4151 1.2763 19.5388 1.2763 19.6914H-1.2763C-1.2763 20.9486 -0.257162 21.9677 1 21.9677V19.4151ZM4.18524 19.6914C4.18524 19.5388 4.30894 19.4151 4.46154 19.4151V21.9677C5.71871 21.9677 6.73784 20.9486 6.73784 19.6914H4.18524ZM4.46154 8.8139C4.30894 8.8139 4.18524 8.6902 4.18524 8.5376H6.73784C6.73784 7.28043 5.7187 6.2613 4.46154 6.2613V8.8139ZM1 6.2613C-0.257167 6.2613 -1.2763 7.28043 -1.2763 8.5376H1.2763C1.2763 8.69019 1.1526 8.8139 1 8.8139V6.2613Z" fill="#292929" mask="url(#path-2-inside-1)"/>
<line x1="10.3424" y1="0.65" x2="10.3424" y2="18.7346" stroke="#292929" stroke-width="1.3" stroke-linecap="round"/>
<mask id="path-5-inside-2" fill="white">
<path d="M7.53857 6.38477C7.53857 5.83248 7.98629 5.38477 8.53857 5.38477H12.0001C12.5524 5.38477 13.0001 5.83248 13.0001 6.38477V17.5386C13.0001 18.0909 12.5524 18.5386 12.0001 18.5386H8.53858C7.98629 18.5386 7.53857 18.0909 7.53857 17.5386V6.38477Z"/>
</mask>
<path d="M7.53857 6.38477C7.53857 5.83248 7.98629 5.38477 8.53857 5.38477H12.0001C12.5524 5.38477 13.0001 5.83248 13.0001 6.38477V17.5386C13.0001 18.0909 12.5524 18.5386 12.0001 18.5386H8.53858C7.98629 18.5386 7.53857 18.0909 7.53857 17.5386V6.38477Z" fill="#292929"/>
<path d="M8.53857 6.66106H12.0001V4.10847H8.53857V6.66106ZM11.7238 6.38477V17.5386H14.2764V6.38477H11.7238ZM12.0001 17.2623H8.53858V19.8149H12.0001V17.2623ZM8.81487 17.5386V6.38477H6.26228V17.5386H8.81487ZM8.53858 17.2623C8.69117 17.2623 8.81487 17.386 8.81487 17.5386H6.26228C6.26228 18.7958 7.28141 19.8149 8.53858 19.8149V17.2623ZM11.7238 17.5386C11.7238 17.386 11.8475 17.2623 12.0001 17.2623V19.8149C13.2573 19.8149 14.2764 18.7958 14.2764 17.5386H11.7238ZM12.0001 6.66106C11.8475 6.66106 11.7238 6.53736 11.7238 6.38477H14.2764C14.2764 5.1276 13.2573 4.10847 12.0001 4.10847V6.66106ZM8.53857 4.10847C7.28141 4.10847 6.26228 5.1276 6.26228 6.38477H8.81487C8.81487 6.53736 8.69117 6.66106 8.53857 6.66106V4.10847Z" fill="#292929" mask="url(#path-5-inside-2)"/>
</svg>
