<svg width="13" height="24" viewBox="0 0 13 24" fill="none" xmlns="http://www.w3.org/2000/svg">
<line x1="2.65" y1="5.65" x2="2.65" y2="23.35" stroke="#CC0000" stroke-width="1.3" stroke-linecap="round"/>
<path d="M0 8C0 7.44771 0.447715 7 1 7H4.07143C4.62371 7 5.07143 7.44772 5.07143 8V18.2143C5.07143 18.7666 4.62371 19.2143 4.07143 19.2143H1C0.447716 19.2143 0 18.7666 0 18.2143V8Z" fill="#CC0000"/>
<line x1="9.65" y1="0.65" x2="9.65" y2="17.35" stroke="#16C9A3" stroke-width="1.3" stroke-linecap="round"/>
<path d="M7 6C7 5.44771 7.44772 5 8 5H11.0714C11.6237 5 12.0714 5.44772 12.0714 6V16.2143C12.0714 16.7666 11.6237 17.2143 11.0714 17.2143H8C7.44772 17.2143 7 16.7666 7 16.2143V6Z" fill="#16C9A3"/>
</svg>
