<svg width="20" height="18" viewBox="0 0 20 18" fill="none" xmlns="http://www.w3.org/2000/svg">
<path d="M8.28125 17.2031C10.4723 17.2031 12.5322 16.35 14.0817 14.8005C14.3106 14.5716 14.3106 14.2008 14.0817 13.9719L9.1098 9L14.0817 4.02808C14.3106 3.79919 14.3106 3.42841 14.0817 3.19952C12.5322 1.64999 10.4723 0.796875 8.28125 0.796875C3.75793 0.796875 0 4.47668 0 9C0 13.5233 3.75793 17.2031 8.28125 17.2031Z" fill="#292929"/>
<path d="M19.8062 7.24219H12.7261L11.5542 8.41406H19.9999C19.972 8.01703 19.8896 7.62579 19.8062 7.24219Z" fill="#292929"/>
<path d="M19.9999 9.58594H11.5542L12.7261 10.7578H19.8062C19.8896 10.3742 19.972 9.98297 19.9999 9.58594Z" fill="#292929"/>
<path d="M16.7687 3.19949L13.8979 6.07028H19.4552C19.0489 5.0069 18.4265 4.02866 17.5973 3.19949C17.3684 2.97061 16.9976 2.97061 16.7687 3.19949Z" fill="#292929"/>
<path d="M13.8979 11.9297L16.7687 14.8005C16.8832 14.9149 17.033 14.9721 17.183 14.9721C17.3329 14.9721 17.4828 14.9149 17.5971 14.8005C18.4265 13.9713 19.0487 12.9931 19.455 11.9297H13.8979Z" fill="#292929"/>
</svg>
