<svg width="16" height="16" viewBox="0 0 16 16" fill="none" xmlns="http://www.w3.org/2000/svg">
<g clip-path="url(#clip0)">
<path d="M15.7498 3.29295C15.5351 3.02739 15.2161 2.87511 14.8746 2.87511H2.67927L2.57036 2.09462C2.49324 1.54193 2.01424 1.12512 1.45615 1.12512H0.499997C0.223874 1.12512 0 1.349 0 1.62512C0 1.90124 0.223874 2.12512 0.499997 2.12512H1.45615C1.51815 2.12512 1.5714 2.17143 1.57993 2.23283L2.92958 11.9056C3.0067 12.4583 3.4857 12.8751 4.04379 12.8751H4.58594C4.53044 13.0316 4.49994 13.1998 4.49994 13.3751C4.49994 14.2021 5.17284 14.875 5.99993 14.875C6.82702 14.875 7.49992 14.2021 7.49992 13.3751C7.49992 13.1998 7.46942 13.0316 7.41393 12.8751H10.0859C10.0304 13.0316 9.99991 13.1998 9.99991 13.3751C9.99991 14.2021 10.6728 14.875 11.4999 14.875C12.327 14.875 12.9999 14.2021 12.9999 13.3751C12.9999 13.1998 12.9694 13.0316 12.9139 12.8751H13.9999C14.276 12.8751 14.4999 12.6512 14.4999 12.3751C14.4999 12.0989 14.276 11.8751 13.9999 11.8751H4.04382C3.98182 11.8751 3.92857 11.8287 3.92004 11.7673L3.79554 10.8751H13.6424C14.1692 10.8751 14.6319 10.5012 14.7426 9.98576L15.9747 4.23589C16.0463 3.90211 15.9643 3.55842 15.7498 3.29295ZM6.49996 13.3751C6.49996 13.6507 6.27565 13.875 5.99996 13.875C5.72428 13.875 5.49997 13.6507 5.49997 13.3751C5.49997 13.0994 5.72428 12.8751 5.99996 12.8751C6.27565 12.8751 6.49996 13.0993 6.49996 13.3751ZM11.9999 13.3751C11.9999 13.6507 11.7756 13.875 11.4999 13.875C11.2242 13.875 10.9999 13.6507 10.9999 13.3751C10.9999 13.0994 11.2242 12.8751 11.4999 12.8751C11.7756 12.8751 11.9999 13.0993 11.9999 13.3751ZM14.9969 4.02626L13.7648 9.77601C13.7525 9.83339 13.701 9.87504 13.6424 9.87504H3.65598L2.8188 3.87508H14.8746C14.9241 3.87508 14.9549 3.90033 14.972 3.92151C14.9891 3.94267 15.0073 3.97801 14.9969 4.02626Z" fill="white"/>
</g>
<defs>
<clipPath id="clip0">
<rect width="16" height="16" fill="white"/>
</clipPath>
</defs>
</svg>
