<svg width="12" height="12" viewBox="0 0 12 12" fill="none" xmlns="http://www.w3.org/2000/svg">
<g clip-path="url(#clip0_282:7504)">
<path d="M9.0365 7.30572C8.97854 7.10947 8.90822 6.93867 8.82563 6.79362C8.74309 6.64843 8.62488 6.50681 8.47076 6.36828C8.31682 6.22983 8.17834 6.11832 8.05555 6.03355C7.93283 5.94872 7.76426 5.85386 7.54993 5.74888C7.33578 5.64391 7.16611 5.56581 7.04121 5.51444C6.91614 5.46314 6.73523 5.39283 6.49859 5.30353C6.28879 5.22322 6.13257 5.16182 6.02979 5.11943C5.92713 5.077 5.79212 5.01677 5.6247 4.93859C5.45735 4.86053 5.33233 4.79129 5.24972 4.73106C5.16713 4.67083 5.07899 4.59718 4.98521 4.51014C4.89144 4.42309 4.8256 4.33044 4.78763 4.23224C4.74975 4.13401 4.73075 4.02684 4.73075 3.91076C4.73075 3.60725 4.86463 3.3594 5.13249 3.16749C5.40037 2.97558 5.74641 2.87958 6.17055 2.87958C6.35796 2.87958 6.54902 2.90521 6.74309 2.9566C6.93716 3.00799 7.10348 3.06588 7.24189 3.13066C7.38042 3.19545 7.51094 3.26689 7.63376 3.34497C7.75654 3.42313 7.84356 3.48223 7.89495 3.52241C7.9463 3.56261 7.97883 3.58938 7.99208 3.60279C8.0502 3.64743 8.11032 3.66303 8.17283 3.64968C8.23977 3.64522 8.29116 3.60945 8.32695 3.54256L8.86947 2.56485C8.92302 2.47561 8.91195 2.39077 8.836 2.31036C8.80917 2.28358 8.77582 2.25236 8.73535 2.21661C8.69529 2.18087 8.6082 2.11615 8.47416 2.02236C8.34025 1.92863 8.19851 1.84492 8.04905 1.77125C7.89943 1.69764 7.70518 1.62282 7.46631 1.54697C7.22758 1.47099 6.98086 1.4197 6.72632 1.39294V0.214287C6.72632 0.151826 6.70627 0.100459 6.6662 0.0602565C6.62605 0.020148 6.57468 0 6.51208 0H5.60797C5.54995 0 5.49973 0.0211801 5.45732 0.0636106C5.41491 0.106041 5.39371 0.156235 5.39371 0.214287V1.41967C4.69278 1.55356 4.12356 1.85268 3.68605 2.31698C3.24859 2.7813 3.02978 3.3214 3.02978 3.93755C3.02978 4.12057 3.04882 4.29468 3.08677 4.45978C3.12468 4.62502 3.17159 4.77347 3.22741 4.90515C3.28319 5.03692 3.36246 5.16634 3.46513 5.29361C3.56779 5.42083 3.66492 5.53023 3.75642 5.6217C3.84796 5.71315 3.9674 5.80805 4.11467 5.90624C4.26204 6.00452 4.38816 6.08382 4.4931 6.14405C4.59806 6.2041 4.73755 6.27352 4.91161 6.35146C5.08572 6.42964 5.22305 6.48872 5.32351 6.529C5.42397 6.56913 5.56123 6.625 5.73541 6.69628C5.97646 6.79003 6.15507 6.8626 6.27112 6.91397C6.38727 6.96534 6.53455 7.03676 6.71323 7.12828C6.89175 7.21971 7.02228 7.30344 7.10493 7.37937C7.18752 7.45529 7.26227 7.54904 7.32928 7.66062C7.3963 7.77219 7.42986 7.8905 7.42986 8.01557C7.42986 8.36826 7.29258 8.64053 7.01794 8.83235C6.74342 9.02438 6.42523 9.12035 6.06366 9.12035C5.89863 9.12035 5.73332 9.1026 5.56819 9.0669C4.98782 8.95068 4.44542 8.67166 3.94094 8.22971L3.92755 8.21632C3.88735 8.16735 3.83375 8.14722 3.76686 8.1562C3.69541 8.16512 3.64404 8.19193 3.61283 8.23666L2.92305 9.14062C2.85607 9.22989 2.86059 9.32139 2.93647 9.41514C2.95882 9.44195 2.99788 9.48222 3.05365 9.5357C3.10957 9.58939 3.21338 9.67296 3.36509 9.78702C3.51685 9.90092 3.68204 10.0079 3.86065 10.1085C4.03924 10.2089 4.26577 10.3082 4.54039 10.4065C4.815 10.5045 5.09954 10.5737 5.3942 10.6139V11.7858C5.3942 11.8439 5.41543 11.8941 5.45781 11.9365C5.50024 11.979 5.55044 12.0001 5.60847 12.0001H6.51257C6.57517 12.0001 6.62654 11.98 6.66667 11.9399C6.70681 11.8998 6.72679 11.8484 6.72679 11.7858V10.6139C7.43676 10.4978 8.01378 10.1931 8.45793 9.69979C8.90212 9.20646 9.12429 8.61827 9.12429 7.93528C9.12405 7.7121 9.09509 7.50227 9.0365 7.30572Z" fill="white"/>
</g>
<defs>
<clipPath id="clip0_282:7504">
<rect width="12" height="12" fill="white"/>
</clipPath>
</defs>
</svg>
