<svg width="18" height="18" viewBox="0 0 18 18" fill="none" xmlns="http://www.w3.org/2000/svg">
<path d="M14.8254 5.14336L10.6066 0.924609C10.5539 0.871875 10.4836 0.84375 10.4062 0.84375H3.375C3.22031 0.84375 3.09375 0.970312 3.09375 1.125V16.875C3.09375 17.0297 3.22031 17.1562 3.375 17.1562H14.625C14.7797 17.1562 14.9062 17.0297 14.9062 16.875V5.34375C14.9062 5.26992 14.8781 5.19609 14.8254 5.14336ZM10.6875 1.80352L13.9465 5.05898H10.6875V1.80352ZM14.3438 16.5938H3.65625V1.40625H10.125V5.34375C10.125 5.49844 10.2516 5.625 10.4062 5.625H14.3438V16.5938Z" fill="#CCCCCC"/>
<path d="M12.4453 7.73438C12.4453 7.88906 12.3187 8.01562 12.1641 8.01562H5.83594C5.68125 8.01562 5.55469 7.88906 5.55469 7.73438C5.55469 7.57969 5.68125 7.45312 5.83594 7.45312H12.1641C12.3187 7.45312 12.4453 7.57969 12.4453 7.73438Z" fill="#CCCCCC"/>
<path d="M12.4453 9.42188C12.4453 9.57656 12.3187 9.70312 12.1641 9.70312H5.83594C5.68125 9.70312 5.55469 9.57656 5.55469 9.42188C5.55469 9.26719 5.68125 9.14062 5.83594 9.14062H12.1641C12.3187 9.14062 12.4453 9.26719 12.4453 9.42188Z" fill="#CCCCCC"/>
<path d="M12.4453 11.1094C12.4453 11.2641 12.3187 11.3906 12.1641 11.3906H5.83594C5.68125 11.3906 5.55469 11.2641 5.55469 11.1094C5.55469 10.9547 5.68125 10.8281 5.83594 10.8281H12.1641C12.3187 10.8281 12.4453 10.9547 12.4453 11.1094Z" fill="#CCCCCC"/>
<path d="M12.4453 12.7969C12.4453 12.9516 12.3187 13.0781 12.1641 13.0781H5.83594C5.68125 13.0781 5.55469 12.9516 5.55469 12.7969C5.55469 12.6422 5.68125 12.5156 5.83594 12.5156H12.1641C12.3187 12.5156 12.4453 12.6422 12.4453 12.7969Z" fill="#CCCCCC"/>
<path d="M12.4453 14.4844C12.4453 14.6391 12.3187 14.7656 12.1641 14.7656H5.83594C5.68125 14.7656 5.55469 14.6391 5.55469 14.4844C5.55469 14.3297 5.68125 14.2031 5.83594 14.2031H12.1641C12.3187 14.2031 12.4453 14.3297 12.4453 14.4844Z" fill="#CCCCCC"/>
</svg>
