<svg width="10" height="12" viewBox="0 0 10 12" fill="none" xmlns="http://www.w3.org/2000/svg">
<path d="M8.99408 6.29551C8.7153 5.93501 8.2946 5.68739 7.73203 5.55281C8.44843 5.18739 8.76326 4.56717 8.67683 3.69207C8.64793 3.37473 8.56023 3.09971 8.41352 2.86659C8.26672 2.63343 8.06861 2.44598 7.81844 2.30417C7.56848 2.16219 7.29661 2.05411 7.00348 1.97959C6.71027 1.90508 6.37364 1.85097 5.99382 1.81735V0H4.88332V1.76686C4.69102 1.76686 4.39776 1.77166 4.00357 1.78128V0H2.89292V1.81735C2.73422 1.82218 2.50107 1.82463 2.19339 1.82463L0.664551 1.81735V3.00009H1.46499C1.83039 3.00009 2.04434 3.16359 2.10683 3.49047V5.56026C2.15497 5.56026 2.19339 5.56274 2.22226 5.56754H2.10683V8.46651C2.06841 8.71165 1.929 8.83434 1.68859 8.83434H0.888196L0.664601 10.1541H2.10695C2.19832 10.1541 2.33045 10.1553 2.5036 10.1575C2.67665 10.1599 2.80641 10.1611 2.89297 10.1611V12.0001H4.0038V10.1828C4.20567 10.1877 4.49893 10.19 4.88355 10.19V12.0001H5.99407V10.1611C6.38839 10.1419 6.73813 10.1061 7.04329 10.053C7.3486 9.99993 7.64074 9.91713 7.91953 9.80406C8.19829 9.69116 8.43143 9.55044 8.61891 9.38216C8.80648 9.21404 8.9614 8.99999 9.08421 8.74032C9.20661 8.48066 9.28484 8.18017 9.31839 7.83875C9.38116 7.17064 9.27292 6.65616 8.99408 6.29551ZM4.02516 3.0792C4.05884 3.0792 4.15378 3.07799 4.31004 3.07556C4.46637 3.07309 4.59612 3.07071 4.69948 3.06829C4.80287 3.06591 4.9423 3.07193 5.11785 3.08635C5.29333 3.10077 5.44115 3.12004 5.5613 3.14404C5.68146 3.16804 5.8138 3.20772 5.9579 3.26301C6.10226 3.31825 6.21756 3.38559 6.304 3.46491C6.39061 3.54422 6.46392 3.64523 6.52391 3.76784C6.58407 3.89043 6.61413 4.03104 6.61413 4.18967C6.61413 4.3243 6.59254 4.44694 6.54932 4.55757C6.50618 4.66813 6.44111 4.76071 6.35467 4.83522C6.26821 4.90976 6.17909 4.97473 6.08773 5.02997C5.99647 5.08521 5.87977 5.12972 5.73799 5.16334C5.59624 5.19701 5.47244 5.22346 5.36673 5.24265C5.26095 5.2619 5.12877 5.27516 4.97009 5.28234C4.81138 5.28951 4.69115 5.29441 4.60946 5.29678C4.5277 5.29916 4.41595 5.29916 4.27407 5.29678C4.13216 5.29441 4.04934 5.29315 4.02524 5.29315V3.07918H4.02516V3.0792ZM7.05779 7.99028C7.01199 8.10091 6.95319 8.19712 6.88112 8.27891C6.80893 8.3605 6.71393 8.43269 6.5962 8.49511C6.47849 8.5577 6.36419 8.60809 6.25371 8.64656C6.14307 8.68518 6.0096 8.71865 5.8535 8.7476C5.69705 8.77647 5.56012 8.79678 5.44221 8.80888C5.32447 8.82093 5.18391 8.8305 5.02038 8.83777C4.85698 8.84485 4.72949 8.84851 4.63818 8.84851C4.54682 8.84851 4.43141 8.84719 4.29198 8.84485C4.15247 8.8426 4.06361 8.84139 4.02511 8.84139V6.40374C4.06353 6.40374 4.17773 6.40139 4.36768 6.39649C4.55765 6.39164 4.71262 6.3894 4.83283 6.3894C4.95301 6.3894 5.11894 6.39649 5.33056 6.41102C5.54198 6.42534 5.71988 6.44689 5.86424 6.47573C6.00842 6.50463 6.16576 6.54904 6.33656 6.6092C6.50719 6.66927 6.64548 6.74257 6.75129 6.82911C6.85708 6.9158 6.94596 7.02621 7.01805 7.16086C7.09032 7.29544 7.12637 7.44932 7.12637 7.62245C7.12634 7.75721 7.10353 7.87961 7.05779 7.99028Z" fill="white"/>
</svg>
