<svg width="18" height="18" viewBox="0 0 18 18" fill="none" xmlns="http://www.w3.org/2000/svg">
<path d="M9 0C5.19803 0 0 2.87362 0 9C0 14.9705 4.99961 18 9 18C15.8634 18 18 11.987 18 9C18 4.59213 14.6268 0 9 0ZM6.91299 0.84685C5.97402 1.64764 5.19449 2.97283 4.69134 4.61693C4.03937 4.23071 3.44055 3.75236 2.90906 3.19606C4.00748 2.04449 5.39646 1.23661 6.91299 0.84685ZM2.52283 3.62835C3.11811 4.24843 3.79488 4.77638 4.53189 5.19449C4.25551 6.26811 4.09252 7.45866 4.07126 8.70945H0.588189C0.651969 6.84213 1.33228 5.05984 2.52283 3.62835ZM2.52283 14.3717C1.32874 12.9402 0.651969 11.1579 0.588189 9.29055H4.07126C4.09252 10.5449 4.25551 11.7319 4.53189 12.8055C3.79843 13.2272 3.12165 13.7516 2.52283 14.3717ZM2.90906 14.8075C3.44055 14.2512 4.03937 13.7728 4.69134 13.3866C5.19449 15.0272 5.97402 16.3559 6.91299 17.1567C5.39646 16.7634 4.00748 15.9555 2.90906 14.8075ZM8.70945 17.3976C7.2 17.2063 5.89961 15.5197 5.19803 13.1031C6.28228 12.5539 7.47992 12.2457 8.70945 12.1996V17.3976ZM8.70945 11.622C7.42677 11.6646 6.17953 11.9799 5.04921 12.5327C4.81181 11.5406 4.67008 10.4457 4.64882 9.29055H8.70945V11.622ZM8.70945 8.70945H4.64882C4.67008 7.55433 4.81181 6.45945 5.04921 5.46732C6.18307 6.02008 7.43032 6.33543 8.70945 6.37795V8.70945ZM8.70945 5.80039C7.47638 5.75787 6.28228 5.44606 5.19803 4.89685C5.89961 2.47677 7.2 0.793701 8.70945 0.602362V5.80039ZM15.4772 3.62835C16.6677 5.05984 17.348 6.84213 17.4118 8.70945H13.9323C13.911 7.45512 13.748 6.26811 13.4717 5.19449C14.2051 4.77284 14.8819 4.24843 15.4772 3.62835ZM15.0909 3.19252C14.5594 3.74882 13.9606 4.22717 13.3087 4.61339C12.8055 2.97283 12.026 1.64764 11.087 0.843307C12.6035 1.23661 13.9925 2.04449 15.0909 3.19252ZM9.29055 0.602362C10.8 0.793701 12.1004 2.48031 12.802 4.89685C11.7177 5.44606 10.5236 5.75433 9.29055 5.80039V0.602362ZM9.29055 6.37795C10.5732 6.33543 11.8205 6.02008 12.9508 5.46732C13.1882 6.45945 13.3299 7.55433 13.3512 8.70945H9.29055V6.37795ZM9.29055 9.29055H13.3512C13.3299 10.4457 13.1882 11.5406 12.9508 12.5327C11.8205 11.9764 10.5732 11.661 9.29055 11.622V9.29055ZM9.29055 17.3976V12.1996C10.5236 12.2421 11.7177 12.5539 12.802 13.1031C12.1004 15.5232 10.8 17.2063 9.29055 17.3976ZM11.087 17.1532C12.026 16.3524 12.8055 15.0272 13.3087 13.3831C13.9606 13.7693 14.5594 14.2476 15.0909 14.8039C13.9925 15.9555 12.6035 16.7634 11.087 17.1532ZM15.4772 14.3717C14.8819 13.7516 14.2051 13.2272 13.4717 12.8055C13.748 11.7319 13.911 10.5413 13.9323 9.29055H17.4118C17.348 11.1579 16.6677 12.9402 15.4772 14.3717Z" fill="#D6D6D6"/>
</svg>
