<svg width="17" height="18" viewBox="0 0 17 18" fill="none" xmlns="http://www.w3.org/2000/svg">
<path d="M12.8851 9.54476C12.7167 9.37964 12.7134 9.10552 12.8818 8.93709L14.4407 7.35517H7.0099C6.77211 7.35517 6.58057 7.16362 6.58057 6.92584C6.58057 6.68805 6.77211 6.4965 7.0099 6.4965H14.4373L12.8785 4.91458C12.7134 4.74615 12.7134 4.47534 12.8818 4.30691C13.0503 4.14178 13.3211 4.14178 13.4895 4.31021L15.7683 6.622C15.8046 6.66163 15.8376 6.70456 15.8574 6.75741C15.8806 6.81025 15.8905 6.86639 15.8905 6.92253C15.8905 7.03482 15.8475 7.1405 15.7683 7.22307L13.4895 9.53486C13.3244 9.70659 13.0536 9.70989 12.8851 9.54476Z" fill="white"/>
<path d="M4.10787 14.1023C4.2763 13.9371 4.2796 13.663 4.11117 13.4946L2.55566 11.9127H9.98311C10.2209 11.9127 10.4124 11.7211 10.4124 11.4833C10.4124 11.2455 10.2209 11.054 9.98311 11.054H2.55566L4.11447 9.47207C4.2796 9.30364 4.2796 9.03283 4.11117 8.8644C3.94274 8.69927 3.67193 8.69928 3.5035 8.86771L1.22473 11.1795C1.18841 11.2191 1.15538 11.2621 1.13556 11.3149C1.11245 11.3677 1.10254 11.4239 1.10254 11.48C1.10254 11.5923 1.14547 11.698 1.22473 11.7806L3.5035 14.0923C3.66863 14.2641 3.93944 14.2674 4.10787 14.1023Z" fill="white"/>
</svg>
