<svg width="8" height="11" viewBox="0 0 8 11" fill="none" xmlns="http://www.w3.org/2000/svg">
<path fill-rule="evenodd" clip-rule="evenodd" d="M3.80952 8.131V9.05158C3.80952 9.1478 3.89788 9.22581 4 9.22581C4.1052 9.22581 4.19048 9.14495 4.19048 9.05158V8.131C4.41242 8.05794 4.57143 7.86078 4.57143 7.62903C4.57143 7.33507 4.31559 7.09677 4 7.09677C3.68441 7.09677 3.42857 7.33507 3.42857 7.62903C3.42857 7.86078 3.58758 8.05794 3.80952 8.131ZM6.85714 3.01613V2.66102C6.85714 1.19138 5.57475 0 4 0C2.42204 0 1.14286 1.19109 1.14286 2.66102V5.32259C0.511365 5.32425 0 5.79792 0 6.39046V9.93212C0 10.5219 0.512606 11 1.14621 11H6.8538C7.48683 11 8 10.5257 8 9.93212V6.39046C8 5.80173 7.4892 5.32427 6.85714 5.32258H6.27883H2.29618C2.28927 5.26439 2.28571 5.20525 2.28571 5.14535V2.6611C2.28571 1.77782 3.05323 1.06452 4 1.06452C4.94485 1.06452 5.71429 1.77933 5.71429 2.6611V3.01613V3.94721C5.71429 4.31486 5.96792 4.6129 6.28571 4.6129C6.60131 4.6129 6.85714 4.31194 6.85714 3.94721V3.01613Z" fill="#FAFAFA"/>
</svg>
