<svg width="20" height="20" viewBox="0 0 20 20" fill="none" xmlns="http://www.w3.org/2000/svg">
<path d="M15.8073 0.000140916C15.6795 0.00183808 15.5462 0.0181507 15.4167 0.0522242L1.875 3.61993C0.780464 3.90758 0 4.91027 0 6.04181V10.5731V17.5001C0 18.8709 1.12919 20.0001 2.5 20.0001H17.5C18.8708 20.0001 20 18.8709 20 17.5001V6.66681C20 5.296 18.8708 4.16681 17.5 4.16681H6.35417L15.8333 1.66681V3.33347H17.5V1.66681C17.5 0.72904 16.702 -0.0117393 15.8073 0.000140916ZM2.5 5.83347H17.5C17.9709 5.83347 18.3333 6.19595 18.3333 6.66681V17.5001C18.3333 17.971 17.9709 18.3335 17.5 18.3335H2.5C2.02914 18.3335 1.66667 17.971 1.66667 17.5001V6.66681C1.66667 6.19595 2.02914 5.83347 2.5 5.83347ZM15.4167 10.8335C14.7263 10.8335 14.1667 11.3931 14.1667 12.0835C14.1667 12.7738 14.7263 13.3335 15.4167 13.3335C16.107 13.3335 16.6667 12.7738 16.6667 12.0835C16.6667 11.3931 16.107 10.8335 15.4167 10.8335Z" fill="#3700B3"/>
</svg>
