<svg width="27" height="28" viewBox="0 0 27 28" fill="none" xmlns="http://www.w3.org/2000/svg">
<path d="M15.8073 2.31753C15.6795 2.31925 15.5462 2.33582 15.4167 2.37044L1.875 5.99477C0.780464 6.28698 0 7.30559 0 8.45509V13.0583V20.0953C0 21.4879 1.12919 22.635 2.5 22.635H17.5C18.8708 22.635 20 21.4879 20 20.0953V9.09001C20 7.69745 18.8708 6.55033 17.5 6.55033H6.35417L15.8333 4.01065V5.70377H17.5V4.01065C17.5 3.05799 16.702 2.30546 15.8073 2.31753ZM2.5 8.24345H17.5C17.9709 8.24345 18.3333 8.61168 18.3333 9.09001V20.0953C18.3333 20.5736 17.9709 20.9419 17.5 20.9419H2.5C2.02914 20.9419 1.66667 20.5736 1.66667 20.0953V9.09001C1.66667 8.61168 2.02914 8.24345 2.5 8.24345ZM15.4167 13.3228C14.7263 13.3228 14.1667 13.8913 14.1667 14.5927C14.1667 15.294 14.7263 15.8625 15.4167 15.8625C16.107 15.8625 16.6667 15.294 16.6667 14.5927C16.6667 13.8913 16.107 13.3228 15.4167 13.3228Z" fill="#CCCCCC"/>
</svg>
